<svg xmlns="http://www.w3.org/2000/svg" xmlns:xlink="http://www.w3.org/1999/xlink" width="500" zoomAndPan="magnify" viewBox="0 0 375 374.999991" height="500" preserveAspectRatio="xMidYMid meet" version="1.0"><defs><g/><clipPath id="f36704a204"><path d="M 7.261719 132 L 367.261719 132 L 367.261719 224 L 7.261719 224 Z M 7.261719 132 " clip-rule="nonzero"/></clipPath></defs><rect x="-37.5" width="450" fill="#ffffff" y="-37.499999" height="449.999989" fill-opacity="1"/><rect x="-37.5" width="450" fill="#1b0c49" y="-37.499999" height="449.999989" fill-opacity="1"/><path fill="#ffffff" d="M 58.792969 168.269531 C 58.683594 170.777344 58.613281 173.308594 58.648438 175.835938 C 58.105469 176.863281 57.601562 177.914062 57.148438 178.960938 C 57.546875 175.347656 58.105469 171.773438 58.792969 168.269531 Z M 110.367188 89.089844 C 108.074219 91.652344 105.996094 94.507812 104.101562 97.613281 C 99.789062 99.78125 95.816406 102.128906 92.207031 104.65625 C 97.75 98.933594 103.832031 93.695312 110.367188 89.089844 Z M 275.414062 104.640625 C 271.804688 102.109375 267.816406 99.746094 263.5 97.59375 C 261.605469 94.453125 259.492188 91.582031 257.183594 89 C 263.105469 93.171875 268.71875 97.867188 273.933594 103.085938 C 274.441406 103.574219 274.929688 104.117188 275.414062 104.640625 Z M 308.972656 175.816406 C 309.027344 173.253906 308.957031 170.722656 308.828125 168.195312 C 309.515625 171.699219 310.039062 175.222656 310.4375 178.796875 C 310.003906 177.804688 309.515625 176.792969 308.972656 175.816406 Z M 308.46875 219.921875 C 308.199219 215.101562 306.84375 210.402344 304.460938 205.835938 C 306.84375 197.4375 308.304688 188.894531 308.792969 180.351562 C 310.074219 183.421875 310.851562 186.546875 311.195312 189.707031 C 311.210938 190.878906 311.265625 192.074219 311.265625 193.265625 C 311.265625 202.332031 310.308594 211.253906 308.46875 219.921875 Z M 271.066406 286.167969 C 271.371094 285.71875 271.644531 285.25 271.914062 284.777344 C 272.925781 284.019531 273.898438 283.226562 274.890625 282.429688 C 274.566406 282.757812 274.261719 283.117188 273.933594 283.441406 C 272.996094 284.382812 272.023438 285.265625 271.066406 286.167969 Z M 92.65625 282.359375 C 93.648438 283.171875 94.644531 283.984375 95.652344 284.742188 C 95.925781 285.210938 96.214844 285.683594 96.519531 286.152344 C 95.5625 285.25 94.605469 284.363281 93.667969 283.441406 C 93.324219 283.082031 93 282.71875 92.65625 282.359375 Z M 71.445312 163.210938 C 71.554688 171.519531 72.601562 180.042969 74.660156 188.75 C 74.820312 189.398438 74.984375 190.050781 75.148438 190.699219 C 73.992188 191.710938 72.890625 192.742188 71.84375 193.789062 C 68.667969 196.96875 66.046875 200.253906 64.027344 203.59375 C 61.734375 195.015625 60.433594 186.3125 60.144531 177.585938 C 62.726562 172.53125 66.535156 167.707031 71.445312 163.210938 Z M 64.40625 148.617188 C 66.878906 143.851562 70.472656 139.335938 75.039062 135.144531 C 72.746094 143.234375 71.535156 151.707031 71.429688 160.429688 C 70.183594 161.511719 68.992188 162.613281 67.871094 163.714844 C 64.730469 166.878906 62.148438 170.09375 60.074219 173.398438 C 60.089844 168.414062 60.453125 163.445312 61.136719 158.515625 C 62.09375 155.15625 63.195312 151.851562 64.40625 148.617188 Z M 83.847656 114.230469 C 82.980469 115.730469 82.152344 117.265625 81.375 118.816406 C 80.398438 119.667969 79.460938 120.496094 78.578125 121.382812 C 80.253906 118.925781 82.007812 116.523438 83.847656 114.230469 Z M 99.335938 107.058594 C 93.613281 109.96875 88.523438 113.144531 84.136719 116.558594 C 85.527344 114.011719 87.0625 111.519531 88.703125 109.082031 C 92.785156 105.742188 97.511719 102.652344 102.765625 99.890625 C 101.519531 102.164062 100.367188 104.550781 99.335938 107.058594 Z M 126.648438 90.351562 C 125.566406 92.609375 124.589844 95.03125 123.726562 97.578125 C 120.078125 98.644531 116.539062 99.816406 113.109375 101.082031 C 108.921875 102.652344 105.003906 104.3125 101.324219 106.101562 C 102.460938 103.484375 103.722656 101.007812 105.113281 98.679688 C 111.59375 95.464844 118.832031 92.664062 126.648438 90.351562 Z M 116.738281 84.84375 C 118.597656 83.6875 120.476562 82.585938 122.390625 81.539062 C 126.667969 79.570312 131.308594 77.820312 136.21875 76.320312 C 132.824219 79.789062 129.917969 83.886719 127.480469 88.636719 C 119.933594 90.824219 112.875 93.441406 106.503906 96.441406 C 109.445312 91.960938 112.875 88.078125 116.738281 84.84375 Z M 138.4375 74.1875 C 138.113281 74.261719 137.789062 74.351562 137.460938 74.460938 C 137.859375 74.296875 138.257812 74.152344 138.652344 74.007812 C 138.582031 74.0625 138.507812 74.117188 138.4375 74.1875 Z M 160.261719 69.710938 C 153.726562 70.558594 147.425781 71.785156 141.453125 73.359375 C 141.488281 73.230469 141.507812 73.085938 141.488281 72.960938 C 148.09375 70.628906 154.9375 68.824219 161.996094 67.613281 C 161.382812 68.246094 160.804688 68.949219 160.261719 69.710938 Z M 226.171875 73.320312 C 220.195312 71.75 213.894531 70.523438 207.339844 69.671875 C 206.816406 68.933594 206.257812 68.246094 205.664062 67.613281 C 212.648438 68.824219 219.507812 70.578125 226.152344 72.90625 C 226.117188 73.050781 226.117188 73.175781 226.171875 73.320312 Z M 229.113281 74.117188 C 229.058594 74.0625 228.984375 74.007812 228.914062 73.9375 C 229.3125 74.097656 229.726562 74.242188 230.125 74.40625 C 229.796875 74.316406 229.457031 74.207031 229.113281 74.117188 Z M 266.300781 106.066406 C 262.617188 104.296875 258.699219 102.617188 254.53125 101.0625 C 251.082031 99.800781 247.542969 98.625 243.914062 97.558594 C 243.046875 95.011719 242.054688 92.609375 240.972656 90.316406 C 248.789062 92.648438 256.027344 95.429688 262.492188 98.660156 C 263.898438 100.992188 265.164062 103.464844 266.300781 106.066406 Z M 278.882812 109.027344 C 280.542969 111.464844 282.078125 113.957031 283.46875 116.503906 C 279.082031 113.109375 274.007812 109.929688 268.285156 107.042969 C 267.257812 104.53125 266.101562 102.128906 264.835938 99.851562 C 270.089844 102.632812 274.800781 105.6875 278.882812 109.027344 Z M 286.210938 118.761719 C 285.433594 117.171875 284.585938 115.621094 283.703125 114.066406 C 285.597656 116.46875 287.421875 118.90625 289.136719 121.398438 C 288.195312 120.515625 287.222656 119.613281 286.210938 118.761719 Z M 299.785156 163.714844 C 298.648438 162.597656 297.457031 161.511719 296.210938 160.410156 C 296.085938 151.597656 294.859375 143.054688 292.527344 134.890625 C 297.097656 139.117188 300.6875 143.667969 303.199219 148.492188 C 304.441406 151.816406 305.542969 155.191406 306.5 158.625 C 307.1875 163.519531 307.53125 168.429688 307.546875 173.378906 C 305.492188 170.074219 302.910156 166.859375 299.785156 163.714844 Z M 295.382812 193.789062 C 294.441406 192.832031 293.433594 191.910156 292.402344 191.007812 C 292.601562 190.25 292.800781 189.488281 292.960938 188.75 C 295.039062 180.042969 296.085938 171.519531 296.175781 163.230469 C 296.898438 163.878906 297.601562 164.546875 298.269531 165.234375 C 302.257812 169.207031 305.328125 173.34375 307.496094 177.570312 C 307.207031 186.4375 305.851562 195.324219 303.46875 204.066406 C 301.410156 200.542969 298.703125 197.113281 295.382812 193.789062 Z M 298.214844 219.34375 C 296.265625 216.058594 293.71875 212.878906 290.632812 209.773438 C 289.585938 208.742188 288.503906 207.75 287.367188 206.738281 C 289.171875 202.023438 290.742188 197.292969 292.023438 192.542969 C 292.816406 193.28125 293.613281 194.023438 294.386719 194.78125 C 298.015625 198.410156 300.867188 202.167969 302.945312 205.996094 C 301.644531 210.496094 300.058594 214.957031 298.214844 219.34375 Z M 307.007812 224.292969 C 305.796875 227.542969 304.480469 230.652344 303.054688 233.648438 C 302.636719 229.296875 301.320312 225.035156 299.082031 220.878906 C 300.941406 216.582031 302.546875 212.246094 303.882812 207.839844 C 306.03125 212.371094 307.113281 217.03125 307.113281 221.78125 C 307.113281 222.613281 307.078125 223.460938 307.007812 224.292969 Z M 303.179688 236.59375 C 303.828125 235.328125 304.441406 234.027344 305.058594 232.710938 C 304.441406 234.570312 303.8125 236.394531 303.125 238.234375 C 303.160156 237.675781 303.179688 237.152344 303.179688 236.59375 Z M 247.652344 296.484375 C 248.519531 294.421875 248.96875 292.328125 249.042969 290.160156 C 257.328125 285.84375 265.9375 280.300781 274.117188 273.308594 C 273.882812 276.867188 272.761719 280.390625 270.847656 283.804688 C 263.664062 289.09375 255.722656 293.285156 247.652344 296.484375 Z M 235.285156 309.957031 C 235.179688 309.992188 235.070312 310.046875 234.960938 310.0625 C 236.820312 308.871094 238.535156 307.644531 240.070312 306.324219 C 242.6875 305.550781 245.285156 304.609375 247.8125 303.582031 C 243.753906 305.929688 239.582031 308.058594 235.285156 309.957031 Z M 127.40625 306.273438 C 128.886719 307.570312 130.546875 308.800781 132.355469 309.957031 C 132.316406 309.957031 132.28125 309.9375 132.246094 309.921875 C 127.984375 308.042969 123.796875 305.910156 119.753906 303.542969 C 122.246094 304.574219 124.808594 305.496094 127.40625 306.273438 Z M 93.507812 273.308594 C 101.683594 280.28125 110.292969 285.828125 118.582031 290.144531 C 118.632812 292.292969 119.085938 294.40625 119.933594 296.464844 C 111.882812 293.25 103.941406 289.078125 96.753906 283.785156 C 94.839844 280.371094 93.722656 276.851562 93.507812 273.308594 Z M 64.425781 236.539062 C 64.425781 237.097656 64.460938 237.640625 64.476562 238.21875 C 63.773438 236.339844 63.125 234.460938 62.511719 232.566406 C 63.125 233.917969 63.757812 235.257812 64.425781 236.539062 Z M 80.253906 206.71875 C 79.117188 207.730469 78.015625 208.722656 76.988281 209.773438 C 73.882812 212.859375 71.375 216.058594 69.425781 219.308594 C 67.511719 214.773438 65.886719 210.167969 64.550781 205.507812 C 67.167969 200.832031 70.886719 196.390625 75.542969 192.234375 C 76.824219 197.074219 78.414062 201.914062 80.253906 206.71875 Z M 95.636719 178.941406 C 96.648438 184.015625 97.875 189.128906 99.320312 194.222656 C 92.511719 197.636719 86.484375 201.5 81.410156 205.746094 C 79.570312 200.902344 78 196.046875 76.734375 191.207031 C 81.988281 186.707031 88.34375 182.609375 95.636719 178.941406 Z M 94.878906 121.671875 C 93.398438 128.496094 92.511719 135.867188 92.351562 143.757812 C 92.3125 144.753906 92.332031 145.746094 92.332031 146.738281 C 84.949219 150.425781 78.394531 154.597656 72.890625 159.183594 C 73.125 150.226562 74.515625 141.574219 77.078125 133.320312 C 82.078125 129.074219 88.070312 125.175781 94.878906 121.671875 Z M 95.292969 119.757812 C 88.667969 123.117188 82.820312 126.816406 77.871094 130.792969 C 79.191406 126.980469 80.742188 123.261719 82.546875 119.628906 C 87.097656 115.730469 92.511719 112.152344 98.632812 108.9375 C 97.332031 112.351562 96.195312 115.964844 95.292969 119.757812 Z M 120.492188 109.96875 C 115.3125 111.484375 110.332031 113.199219 105.636719 115.078125 C 102.621094 116.308594 99.734375 117.589844 96.972656 118.925781 C 97.945312 115.078125 99.121094 111.394531 100.511719 107.960938 C 107.296875 104.550781 114.933594 101.585938 123.183594 99.132812 C 122.117188 102.507812 121.199219 106.121094 120.492188 109.96875 Z M 152.175781 92.9375 C 151.613281 96.332031 151.144531 99.890625 150.804688 103.554688 C 140.746094 104.945312 131.070312 106.933594 122.011719 109.515625 C 122.769531 105.632812 123.707031 102.019531 124.84375 98.644531 C 133.363281 96.1875 142.535156 94.273438 152.175781 92.9375 Z M 153.90625 84.554688 C 153.347656 86.757812 152.859375 89.070312 152.410156 91.507812 C 143.003906 92.792969 133.925781 94.652344 125.386719 97.070312 C 126.304688 94.507812 127.316406 92.085938 128.453125 89.8125 C 136.414062 87.554688 144.972656 85.785156 153.90625 84.554688 Z M 183.097656 81.140625 C 173.730469 81.160156 164.539062 81.757812 155.75 82.875 C 157.140625 78.089844 158.890625 74.0625 160.984375 71.046875 C 168.152344 70.105469 175.550781 69.621094 183.097656 69.582031 Z M 211.890625 82.875 C 203.082031 81.757812 193.894531 81.160156 184.507812 81.140625 L 184.507812 69.582031 C 192.085938 69.601562 199.488281 70.089844 206.601562 70.992188 C 208.730469 74.027344 210.464844 78.054688 211.890625 82.875 Z M 215.210938 91.492188 C 214.777344 89.070312 214.292969 86.742188 213.714844 84.539062 C 222.667969 85.765625 231.207031 87.535156 239.167969 89.792969 C 240.304688 92.070312 241.332031 94.507812 242.253906 97.070312 C 233.699219 94.632812 224.636719 92.773438 215.210938 91.492188 Z M 245.613281 109.460938 C 236.621094 106.914062 226.964844 104.910156 216.835938 103.519531 C 216.476562 99.851562 216.023438 96.3125 215.445312 92.9375 C 225.105469 94.253906 234.273438 96.1875 242.796875 98.625 C 243.914062 102.003906 244.855469 105.597656 245.613281 109.460938 Z M 270.648438 118.835938 C 263.554688 115.402344 255.667969 112.40625 247.128906 109.914062 C 246.40625 106.066406 245.523438 102.488281 244.4375 99.113281 C 252.707031 101.585938 260.324219 104.53125 267.113281 107.925781 C 268.5 111.359375 269.675781 115.007812 270.648438 118.835938 Z M 272.328125 119.648438 C 271.410156 115.875 270.289062 112.296875 268.988281 108.917969 C 275.109375 112.117188 280.507812 115.691406 285.054688 119.59375 C 286.84375 123.171875 288.414062 126.871094 289.714844 130.648438 C 284.730469 126.65625 278.882812 122.953125 272.328125 119.648438 Z M 275.308594 146.722656 C 275.308594 145.746094 275.308594 144.753906 275.289062 143.757812 C 275.109375 135.777344 274.222656 128.300781 272.707031 121.398438 C 279.496094 124.886719 285.488281 128.804688 290.472656 133.066406 C 293.070312 141.410156 294.515625 150.136719 294.75 159.164062 C 289.226562 154.597656 282.691406 150.425781 275.308594 146.722656 Z M 268.304688 194.222656 C 269.746094 189.183594 270.957031 184.144531 271.949219 179.140625 C 279.261719 182.84375 285.597656 186.980469 290.8125 191.496094 C 289.570312 196.246094 288.035156 201.03125 286.230469 205.761719 C 281.136719 201.5 275.109375 197.652344 268.304688 194.222656 Z M 280.089844 219.777344 C 275.363281 215.824219 269.765625 212.226562 263.449219 209.050781 C 265.109375 204.589844 266.589844 200.109375 267.90625 195.59375 C 274.695312 199.027344 280.667969 202.890625 285.6875 207.152344 C 284.027344 211.398438 282.167969 215.605469 280.089844 219.777344 Z M 291.554688 232.871094 C 289.695312 229.691406 287.257812 226.585938 284.242188 223.550781 C 283.285156 222.59375 282.238281 221.65625 281.191406 220.734375 C 283.285156 216.582031 285.144531 212.371094 286.824219 208.148438 C 287.78125 209.011719 288.738281 209.878906 289.621094 210.765625 C 292.925781 214.089844 295.542969 217.484375 297.511719 220.988281 C 295.742188 224.996094 293.773438 228.972656 291.554688 232.871094 Z M 218.066406 299.988281 C 217.957031 298.921875 217.667969 297.855469 217.199219 296.808594 C 227.453125 292.851562 237.039062 288.03125 245.863281 282.394531 C 246.984375 284.632812 247.5625 286.945312 247.617188 289.3125 C 236.53125 295 226.0625 298.433594 218.066406 299.988281 Z M 217.542969 304.195312 C 217.867188 303.308594 218.046875 302.371094 218.101562 301.429688 C 226.0625 299.878906 236.476562 296.519531 247.578125 290.902344 C 247.417969 293.03125 246.820312 295.144531 245.808594 297.1875 C 236.082031 300.851562 226.296875 303.148438 217.542969 304.195312 Z M 210.355469 312.214844 C 211.601562 311.4375 212.722656 310.589844 213.695312 309.703125 C 220.988281 310.191406 228.894531 309.304688 236.695312 307.28125 C 234.5625 308.835938 232.144531 310.300781 229.527344 311.617188 C 223.5 313.082031 218.640625 313.117188 210.355469 312.214844 Z M 166.652344 316.242188 C 171.761719 317.722656 177.644531 318.570312 183.800781 318.570312 C 186.851562 318.570312 189.796875 318.371094 192.59375 318.011719 C 193.53125 318.933594 194.507812 319.691406 195.5 320.25 C 191.636719 320.59375 187.738281 320.792969 183.800781 320.792969 C 175.171875 320.792969 166.671875 319.925781 158.382812 318.265625 C 161.273438 318.011719 163.945312 317.34375 166.652344 316.242188 Z M 153.980469 309.703125 C 154.953125 310.589844 156.074219 311.4375 157.320312 312.214844 C 148.980469 313.117188 144.125 313.082031 138.058594 311.597656 C 135.441406 310.28125 133.039062 308.835938 130.910156 307.265625 C 138.726562 309.304688 146.667969 310.191406 153.980469 309.703125 Z M 149.519531 301.429688 C 149.574219 302.351562 149.757812 303.292969 150.082031 304.195312 C 141.324219 303.128906 131.523438 300.851562 121.792969 297.167969 C 120.78125 295.128906 120.1875 293.03125 120.042969 290.902344 C 131.125 296.5 141.542969 299.878906 149.519531 301.429688 Z M 121.738281 282.359375 C 130.585938 288.03125 140.171875 292.851562 150.421875 296.789062 C 149.9375 297.835938 149.648438 298.902344 149.539062 299.988281 C 141.542969 298.414062 131.089844 294.984375 119.988281 289.292969 C 120.042969 286.910156 120.65625 284.597656 121.738281 282.359375 Z M 75.273438 234.28125 C 73.199219 238.183594 71.988281 242.191406 71.664062 246.308594 C 69.585938 243.09375 67.636719 239.769531 65.851562 236.230469 C 65.90625 231.535156 67.078125 226.964844 69.261719 222.578125 C 71.050781 226.550781 73.054688 230.453125 75.273438 234.28125 Z M 86.449219 220.71875 C 85.363281 221.65625 84.335938 222.59375 83.359375 223.550781 C 80.363281 226.570312 77.925781 229.675781 76.066406 232.855469 C 73.867188 228.953125 71.878906 224.996094 70.128906 220.988281 C 72.65625 216.453125 76.265625 212.15625 80.796875 208.148438 C 82.476562 212.355469 84.355469 216.5625 86.449219 220.71875 Z M 104.191406 209.03125 C 97.855469 212.210938 92.261719 215.804688 87.53125 219.761719 C 85.453125 215.605469 83.59375 211.378906 81.933594 207.152344 C 86.898438 202.964844 92.890625 199.097656 99.734375 195.648438 C 101.050781 200.128906 102.53125 204.605469 104.191406 209.03125 Z M 124.300781 186.167969 C 125.277344 190.734375 126.378906 195.359375 127.605469 200 C 119.554688 202.332031 112.136719 205.148438 105.457031 208.398438 C 103.8125 203.957031 102.332031 199.496094 101.015625 195.015625 C 107.984375 191.621094 115.816406 188.640625 124.300781 186.167969 Z M 121.125 169.082031 C 121.917969 174.210938 122.859375 179.429688 123.976562 184.722656 C 115.511719 187.179688 107.660156 190.140625 100.617188 193.589844 C 99.175781 188.476562 97.945312 183.367188 96.9375 178.292969 C 104.191406 174.753906 112.316406 171.644531 121.125 169.082031 Z M 118.398438 138.9375 C 118.582031 147.96875 119.429688 157.59375 120.910156 167.617188 C 112.117188 170.164062 103.976562 173.234375 96.648438 176.8125 C 94.804688 167.128906 93.832031 157.59375 93.722656 148.4375 C 101.105469 144.789062 109.390625 141.609375 118.398438 138.9375 Z M 118.886719 121.871094 C 118.472656 126.582031 118.308594 131.550781 118.34375 136.699219 C 109.464844 139.296875 101.195312 142.441406 93.742188 146.035156 C 93.742188 145.292969 93.742188 144.535156 93.757812 143.796875 C 93.9375 135.578125 94.878906 127.882812 96.503906 120.839844 C 103.632812 117.316406 111.574219 114.210938 120.203125 111.609375 C 119.644531 114.878906 119.195312 118.277344 118.886719 121.871094 Z M 149.738281 130.125 C 139.195312 131.550781 129.140625 133.628906 119.753906 136.28125 C 119.71875 131.386719 119.898438 126.601562 120.296875 121.976562 C 120.621094 118.203125 121.105469 114.589844 121.703125 111.195312 C 130.746094 108.539062 140.476562 106.464844 150.660156 105.035156 C 149.953125 113.128906 149.683594 121.726562 149.738281 130.125 Z M 183.097656 102.726562 L 183.097656 127.882812 C 172.050781 127.921875 161.253906 128.640625 150.894531 129.980469 C 150.875 121.019531 151.199219 112.550781 151.902344 104.855469 C 161.941406 103.519531 172.394531 102.777344 183.097656 102.726562 Z M 183.097656 90.824219 L 183.097656 101.316406 C 172.574219 101.351562 162.140625 102.058594 152.046875 103.375 C 152.425781 99.65625 152.898438 96.078125 153.492188 92.773438 C 162.96875 91.527344 172.898438 90.859375 183.097656 90.824219 Z M 183.097656 89.394531 C 173.0625 89.433594 163.242188 90.082031 153.746094 91.308594 C 154.214844 88.871094 154.738281 86.542969 155.316406 84.375 C 164.25 83.199219 173.566406 82.585938 183.097656 82.550781 Z M 184.507812 89.394531 L 184.507812 82.550781 C 194.054688 82.585938 203.371094 83.199219 212.304688 84.355469 C 212.902344 86.523438 213.40625 88.855469 213.875 91.308594 C 204.382812 90.082031 194.542969 89.433594 184.507812 89.394531 Z M 184.507812 101.316406 L 184.507812 90.824219 C 194.722656 90.839844 204.652344 91.507812 214.148438 92.753906 C 214.726562 96.078125 215.195312 99.617188 215.574219 103.339844 C 205.625 102.039062 195.191406 101.351562 184.507812 101.316406 Z M 216.730469 129.980469 C 206.386719 128.625 195.570312 127.902344 184.507812 127.882812 L 184.507812 102.726562 C 195.265625 102.761719 205.71875 103.484375 215.71875 104.785156 C 216.441406 112.496094 216.765625 121.003906 216.730469 129.980469 Z M 247.34375 121.976562 C 247.742188 126.601562 247.90625 131.386719 247.867188 136.28125 C 238.5 133.628906 228.445312 131.550781 217.902344 130.125 C 217.9375 121.6875 217.683594 113.074219 216.964844 104.945312 C 227.179688 106.355469 236.875 108.394531 245.882812 110.980469 C 246.515625 114.464844 247 118.132812 247.34375 121.976562 Z M 249.277344 136.699219 C 249.332031 131.550781 249.148438 126.582031 248.753906 121.871094 C 248.429688 118.222656 247.976562 114.753906 247.398438 111.414062 C 256.027344 113.976562 263.972656 117.046875 271.082031 120.570312 C 272.726562 127.703125 273.683594 135.46875 273.882812 143.796875 C 273.898438 144.535156 273.882812 145.292969 273.898438 146.035156 C 266.445312 142.421875 258.175781 139.296875 249.277344 136.699219 Z M 246.695312 167.746094 C 248.210938 157.648438 249.058594 147.96875 249.242188 138.863281 C 258.195312 141.519531 266.480469 144.714844 273.898438 148.402344 C 273.808594 157.613281 272.796875 167.238281 270.957031 176.992188 C 263.644531 173.398438 255.488281 170.308594 246.695312 167.746094 Z M 243.644531 184.738281 C 244.761719 179.484375 245.683594 174.320312 246.476562 169.242188 C 247.542969 169.550781 248.625 169.839844 249.691406 170.164062 C 257.308594 172.566406 264.3125 175.347656 270.648438 178.472656 C 269.65625 183.492188 268.449219 188.550781 267.023438 193.589844 C 259.964844 190.15625 252.128906 187.179688 243.644531 184.738281 Z M 240.035156 200 C 241.261719 195.339844 242.363281 190.699219 243.335938 186.113281 C 251.804688 188.550781 259.621094 191.53125 266.625 194.960938 C 265.308594 199.460938 263.828125 203.957031 262.183594 208.417969 C 255.503906 205.167969 248.066406 202.332031 240.035156 200 Z M 257.382812 220.265625 C 254.53125 226.695312 251.386719 232.90625 247.957031 238.886719 C 242.542969 236.230469 236.515625 233.9375 229.996094 232.042969 C 231.929688 226.820312 233.769531 221.441406 235.484375 215.949219 C 237 211.054688 238.410156 206.195312 239.691406 201.390625 C 247.667969 203.6875 255.054688 206.484375 261.695312 209.734375 C 260.34375 213.277344 258.933594 216.796875 257.382812 220.265625 Z M 262.363281 248.023438 C 258.609375 244.902344 254.1875 242.046875 249.222656 239.519531 C 252.652344 233.523438 255.8125 227.292969 258.679688 220.84375 C 260.214844 217.375 261.640625 213.890625 262.960938 210.367188 C 269.222656 213.546875 274.765625 217.121094 279.421875 221.058594 C 274.710938 230.324219 268.988281 239.375 262.363281 248.023438 Z M 265.882812 251.222656 C 265.109375 250.445312 264.277344 249.6875 263.429688 248.945312 C 270.054688 240.3125 275.792969 231.28125 280.523438 222.015625 C 281.464844 222.867188 282.382812 223.695312 283.230469 224.5625 C 286.390625 227.726562 288.882812 230.957031 290.722656 234.28125 C 290.238281 235.128906 289.75 235.976562 289.242188 236.808594 C 284.277344 244.847656 278.503906 252.304688 272.023438 259.132812 C 270.46875 256.40625 268.429688 253.785156 265.882812 251.222656 Z M 242.128906 274.917969 C 241.640625 274.449219 241.117188 273.980469 240.59375 273.527344 C 248.335938 266.644531 255.667969 258.863281 262.292969 250.445312 C 262.382812 250.320312 262.472656 250.175781 262.5625 250.066406 C 263.375 250.769531 264.152344 251.492188 264.875 252.214844 C 267.453125 254.796875 269.476562 257.472656 270.992188 260.199219 C 263.683594 267.730469 255.433594 274.464844 246.386719 280.355469 C 245.304688 278.492188 243.878906 276.6875 242.128906 274.917969 Z M 214.347656 292.78125 C 214.238281 292.671875 214.148438 292.597656 214.039062 292.507812 C 222.722656 287.757812 231.332031 281.617188 239.527344 274.464844 C 240.089844 274.9375 240.628906 275.421875 241.136719 275.929688 C 242.8125 277.628906 244.167969 279.359375 245.214844 281.128906 C 236.371094 286.785156 226.785156 291.605469 216.53125 295.542969 C 215.953125 294.585938 215.230469 293.664062 214.347656 292.78125 Z M 128.058594 274.429688 C 136.269531 281.601562 144.898438 287.742188 153.582031 292.492188 C 153.472656 292.597656 153.367188 292.671875 153.277344 292.78125 C 152.390625 293.664062 151.667969 294.585938 151.074219 295.542969 C 140.820312 291.605469 131.253906 286.765625 122.40625 281.128906 C 123.777344 278.765625 125.691406 276.523438 128.058594 274.429688 Z M 105.042969 250.046875 C 105.148438 250.175781 105.238281 250.320312 105.347656 250.445312 C 111.953125 258.863281 119.285156 266.644531 127.027344 273.507812 C 126.503906 273.980469 125.980469 274.449219 125.476562 274.917969 C 123.726562 276.667969 122.296875 278.492188 121.214844 280.355469 C 112.191406 274.464844 103.941406 267.710938 96.628906 260.199219 C 98.597656 256.621094 101.449219 253.207031 105.042969 250.046875 Z M 104.191406 248.929688 C 103.34375 249.667969 102.515625 250.445312 101.738281 251.222656 C 99.175781 253.769531 97.152344 256.40625 95.601562 259.097656 C 89.101562 252.289062 83.34375 244.847656 78.394531 236.808594 C 77.871094 235.976562 77.402344 235.128906 76.898438 234.28125 C 79.300781 229.945312 82.746094 225.847656 87.097656 222.015625 C 91.84375 231.265625 97.566406 240.296875 104.191406 248.929688 Z M 108.957031 220.84375 C 111.8125 227.273438 114.96875 233.503906 118.398438 239.5 C 113.433594 242.046875 109.011719 244.902344 105.277344 248.007812 C 98.652344 239.375 92.910156 230.324219 88.199219 221.058594 C 92.820312 217.175781 98.363281 213.601562 104.679688 210.421875 C 106.015625 213.925781 107.441406 217.394531 108.957031 220.84375 Z M 132.15625 215.949219 C 133.871094 221.441406 135.710938 226.820312 137.625 232.042969 C 131.109375 233.917969 125.078125 236.230469 119.664062 238.886719 C 116.25 232.90625 113.09375 226.695312 110.238281 220.265625 C 108.707031 216.816406 107.296875 213.3125 105.960938 209.773438 C 112.550781 206.574219 119.933594 203.757812 127.96875 201.445312 C 129.25 206.230469 130.621094 211.089844 132.15625 215.949219 Z M 154.523438 195.902344 C 155.949219 206.828125 157.609375 217.484375 159.449219 227.472656 C 152.320312 228.445312 145.511719 229.835938 139.140625 231.609375 C 135.550781 221.925781 132.246094 211.613281 129.429688 201.03125 C 137.246094 198.828125 145.65625 197.113281 154.523438 195.902344 Z M 152.679688 180.261719 C 153.167969 185.011719 153.726562 189.777344 154.324219 194.472656 C 145.460938 195.667969 136.976562 197.382812 129.050781 199.605469 C 127.839844 195.035156 126.738281 190.410156 125.746094 185.769531 C 134.121094 183.421875 143.167969 181.542969 152.679688 180.261719 Z M 151.089844 162.8125 C 151.34375 166.117188 151.597656 169.152344 151.851562 171.824219 C 152.046875 174.15625 152.28125 176.503906 152.535156 178.832031 C 143.003906 180.097656 133.90625 181.957031 125.421875 184.324219 C 124.320312 179.105469 123.347656 173.886719 122.550781 168.664062 C 131.433594 166.15625 141.019531 164.1875 151.089844 162.8125 Z M 151 161.40625 C 140.929688 162.742188 131.308594 164.691406 122.335938 167.21875 C 120.855469 157.46875 119.953125 147.804688 119.789062 138.523438 C 129.085938 135.847656 139.140625 133.734375 149.757812 132.289062 C 149.847656 142.785156 150.386719 152.933594 151 161.40625 Z M 183.097656 159.253906 C 172.484375 159.273438 162.101562 159.960938 152.140625 161.242188 C 151.417969 151.253906 150.984375 141.449219 150.910156 132.128906 C 161.183594 130.753906 171.976562 130.050781 183.097656 130.015625 Z M 215.484375 161.296875 C 205.535156 159.996094 195.136719 159.292969 184.507812 159.253906 L 184.507812 130.015625 C 195.570312 130.03125 206.386719 130.753906 216.730469 132.109375 C 216.65625 141.449219 216.222656 151.273438 215.484375 161.296875 Z M 216.636719 161.441406 C 217.253906 152.953125 217.777344 142.800781 217.882812 132.253906 C 228.425781 133.679688 238.480469 135.777344 247.851562 138.46875 C 247.667969 147.785156 246.765625 157.523438 245.285156 167.328125 C 236.332031 164.78125 226.710938 162.796875 216.636719 161.441406 Z M 215.105469 178.832031 C 215.339844 176.503906 215.574219 174.15625 215.789062 171.824219 C 216.023438 169.171875 216.277344 166.171875 216.53125 162.886719 C 226.476562 164.242188 236.0625 166.246094 245.070312 168.828125 C 244.257812 173.992188 243.300781 179.160156 242.199219 184.324219 C 233.714844 181.957031 224.617188 180.097656 215.105469 178.832031 Z M 213.300781 194.472656 C 213.894531 189.761719 214.453125 185.011719 214.960938 180.222656 C 224.417969 181.507812 233.480469 183.332031 241.910156 185.695312 C 240.898438 190.375 239.800781 195.015625 238.589844 199.605469 C 230.648438 197.382812 222.179688 195.667969 213.300781 194.472656 Z M 208.171875 227.472656 C 210.011719 217.464844 211.691406 206.808594 213.117188 195.882812 C 221.925781 197.074219 230.359375 198.773438 238.230469 200.976562 C 235.394531 211.578125 232.074219 221.925781 228.5 231.625 C 222.125 229.835938 215.300781 228.445312 208.171875 227.472656 Z M 215.789062 261.046875 C 211.296875 259.800781 206.492188 258.789062 201.476562 258.085938 C 203.75 249.488281 205.933594 239.574219 207.9375 228.863281 C 214.976562 229.820312 221.710938 231.191406 228.011719 232.945312 C 224.167969 243.238281 219.996094 252.757812 215.789062 261.046875 Z M 229.203125 266.085938 C 225.574219 264.316406 221.585938 262.78125 217.269531 261.480469 C 221.53125 253.101562 225.683594 243.582031 229.507812 233.359375 C 235.953125 235.21875 241.929688 237.496094 247.273438 240.113281 C 241.894531 249.398438 235.828125 258.085938 229.203125 266.085938 Z M 230.484375 266.734375 C 237.089844 258.734375 243.15625 250.03125 248.535156 240.746094 C 253.445312 243.238281 257.796875 246.074219 261.496094 249.144531 C 261.390625 249.289062 261.28125 249.414062 261.171875 249.558594 C 254.566406 257.976562 247.238281 265.742188 239.527344 272.589844 C 236.929688 270.4375 233.894531 268.46875 230.484375 266.734375 Z M 216.621094 262.761719 C 220.828125 264.007812 224.742188 265.472656 228.265625 267.167969 C 221.820312 274.828125 214.832031 281.835938 207.394531 288.03125 C 205.699219 287.21875 203.839844 286.476562 201.855469 285.863281 C 206.671875 280.191406 211.710938 272.246094 216.621094 262.761719 Z M 201.113281 259.476562 C 206.023438 260.144531 210.734375 261.121094 215.140625 262.347656 C 210.140625 272.046875 205.085938 279.976562 200.375 285.429688 C 197.902344 284.742188 195.265625 284.203125 192.519531 283.839844 C 195.355469 278.367188 198.28125 269.933594 201.113281 259.476562 Z M 184.507812 258.320312 C 189.757812 258.339844 194.886719 258.679688 199.8125 259.296875 C 196.945312 269.769531 193.945312 278.203125 191.003906 283.660156 C 188.910156 283.425781 186.726562 283.296875 184.507812 283.28125 Z M 176.617188 283.660156 C 173.675781 278.203125 170.679688 269.769531 167.824219 259.296875 C 172.699219 258.664062 177.828125 258.339844 183.097656 258.300781 L 183.097656 283.28125 C 180.894531 283.296875 178.710938 283.425781 176.617188 283.660156 Z M 167.265625 285.429688 C 162.554688 279.976562 157.5 272.046875 152.5 262.347656 C 156.886719 261.136719 161.578125 260.160156 166.527344 259.476562 C 169.34375 269.949219 172.265625 278.367188 175.117188 283.839844 C 172.355469 284.183594 169.722656 284.726562 167.265625 285.429688 Z M 160.242188 288.03125 C 152.808594 281.835938 145.820312 274.828125 139.359375 267.1875 C 142.894531 265.507812 146.796875 264.027344 151.019531 262.761719 C 155.929688 272.246094 160.964844 280.191406 165.769531 285.84375 C 163.78125 286.476562 161.921875 287.199219 160.242188 288.03125 Z M 137.136719 266.71875 C 133.742188 268.46875 130.691406 270.4375 128.09375 272.570312 C 120.386719 265.726562 113.054688 257.976562 106.46875 249.558594 C 106.339844 249.414062 106.234375 249.269531 106.125 249.125 C 109.789062 246.09375 114.15625 243.292969 119.105469 240.78125 C 124.484375 250.046875 130.53125 258.734375 137.136719 266.71875 Z M 150.351562 261.480469 C 146.054688 262.761719 142.046875 264.296875 138.4375 266.066406 C 131.8125 258.085938 125.765625 249.414062 120.386719 240.152344 C 125.691406 237.550781 131.667969 235.292969 138.128906 233.414062 C 141.957031 243.601562 146.109375 253.117188 150.351562 261.480469 Z M 166.148438 258.085938 C 161.128906 258.789062 156.34375 259.800781 151.851562 261.046875 C 147.644531 252.757812 143.492188 243.238281 139.648438 232.960938 C 145.910156 231.226562 152.625 229.855469 159.703125 228.878906 C 161.707031 239.574219 163.890625 249.488281 166.148438 258.085938 Z M 183.097656 227.273438 L 183.097656 256.894531 C 177.71875 256.929688 172.484375 257.289062 167.445312 257.921875 C 165.152344 249.324219 162.933594 239.410156 160.910156 228.71875 C 168.007812 227.796875 175.445312 227.308594 183.097656 227.273438 Z M 183.097656 193.949219 L 183.097656 225.863281 C 175.390625 225.882812 167.863281 226.386719 160.660156 227.308594 C 158.78125 217.304688 157.101562 206.628906 155.675781 195.738281 C 164.449219 194.601562 173.636719 193.988281 183.097656 193.949219 Z M 183.097656 178.183594 L 183.097656 192.542969 C 173.621094 192.558594 164.378906 193.175781 155.496094 194.3125 C 154.882812 189.617188 154.324219 184.867188 153.816406 180.078125 C 163.1875 178.886719 172.988281 178.21875 183.097656 178.183594 Z M 183.097656 176.773438 C 173.007812 176.792969 163.132812 177.441406 153.671875 178.671875 C 153.132812 173.324219 152.644531 167.960938 152.246094 162.667969 C 162.101562 161.386719 172.445312 160.699219 183.097656 160.664062 Z M 184.507812 176.773438 L 184.507812 160.683594 C 195.011719 160.71875 205.375 161.441406 215.375 162.742188 C 214.996094 168.015625 214.507812 173.34375 213.949219 178.671875 C 204.488281 177.441406 194.613281 176.792969 184.507812 176.773438 Z M 184.507812 192.542969 L 184.507812 178.183594 C 194.578125 178.21875 204.398438 178.851562 213.824219 180.0625 C 213.316406 184.847656 212.757812 189.617188 212.144531 194.328125 C 203.261719 193.175781 194 192.558594 184.507812 192.542969 Z M 184.507812 225.863281 L 184.507812 193.949219 C 193.929688 193.96875 203.136719 194.582031 211.964844 195.722656 C 210.535156 206.628906 208.839844 217.304688 206.980469 227.328125 C 199.761719 226.386719 192.214844 225.882812 184.507812 225.863281 Z M 184.507812 227.273438 C 192.140625 227.308594 199.578125 227.777344 206.726562 228.699219 C 204.707031 239.410156 202.484375 249.324219 200.175781 257.941406 C 195.136719 257.289062 189.886719 256.929688 184.507812 256.894531 Z M 154.683594 291.496094 C 146.019531 286.785156 137.355469 280.679688 129.140625 273.492188 C 131.667969 271.449219 134.664062 269.554688 138.058594 267.839844 C 144.503906 275.496094 151.472656 282.484375 158.871094 288.734375 C 157.320312 289.566406 155.910156 290.488281 154.683594 291.496094 Z M 208.75 288.734375 C 216.167969 282.503906 223.136719 275.496094 229.5625 267.839844 C 232.921875 269.554688 235.898438 271.449219 238.445312 273.546875 C 230.230469 280.699219 221.601562 286.800781 212.9375 291.515625 C 211.710938 290.503906 210.320312 289.582031 208.75 288.734375 Z M 198.515625 319.925781 C 197.089844 319.601562 195.714844 318.859375 194.398438 317.742188 C 196.726562 317.359375 198.929688 316.855469 201.003906 316.257812 C 203.714844 317.34375 206.367188 318.011719 209.21875 318.265625 C 205.699219 318.96875 202.105469 319.511719 198.515625 319.925781 Z M 212.828125 307.554688 C 207.449219 312.953125 196.042969 316.441406 183.800781 316.441406 C 171.5625 316.441406 160.171875 312.953125 154.773438 307.554688 C 152.679688 305.457031 151.613281 303.21875 151.613281 300.925781 C 151.613281 292.347656 166.058594 285.375 183.800781 285.375 C 196.042969 285.375 207.449219 288.878906 212.828125 294.277344 C 214.941406 296.375 216.007812 298.613281 216.007812 300.925781 C 216.007812 303.21875 214.941406 305.457031 212.828125 307.554688 Z M 72.960938 248.351562 C 73.035156 244.015625 74.136719 239.808594 76.140625 235.742188 C 76.484375 236.359375 76.824219 236.953125 77.203125 237.566406 C 82.277344 245.804688 88.214844 253.445312 94.894531 260.433594 C 93.289062 263.613281 92.367188 266.878906 92.132812 270.222656 C 85.21875 264.027344 78.667969 256.785156 72.960938 248.351562 Z M 93.46875 271.414062 C 93.558594 268 94.410156 264.695312 95.941406 261.515625 C 103.289062 268.992188 111.523438 275.730469 120.546875 281.601562 C 119.410156 283.875 118.777344 286.207031 118.617188 288.589844 C 110.277344 284.183594 101.648438 278.53125 93.46875 271.414062 Z M 126.488281 303.507812 C 125.042969 302.082031 123.871094 300.601562 122.914062 299.101562 C 132.535156 302.585938 142.175781 304.738281 150.765625 305.710938 C 151.253906 306.632812 151.867188 307.5 152.625 308.367188 C 144.828125 308.710938 136.34375 307.5 128.128906 305.042969 C 127.570312 304.539062 126.992188 304.03125 126.488281 303.507812 Z M 147.246094 315.484375 C 145.875 315.011719 144.519531 314.507812 143.222656 313.984375 C 147.753906 314.488281 152.425781 314.199219 159.433594 313.386719 C 160.984375 314.199219 162.664062 314.921875 164.484375 315.535156 C 160.640625 316.835938 156.796875 317.234375 152.101562 316.800781 C 152.085938 316.800781 152.046875 316.800781 152.046875 316.800781 C 150.441406 316.402344 148.835938 315.953125 147.246094 315.484375 Z M 220.355469 315.484375 C 218.769531 315.953125 217.179688 316.386719 215.574219 316.800781 C 215.554688 316.800781 215.554688 316.800781 215.539062 316.800781 C 210.84375 317.234375 207.035156 316.835938 203.207031 315.554688 C 205.03125 314.921875 206.726562 314.199219 208.261719 313.40625 C 215.210938 314.199219 219.871094 314.488281 224.382812 313.984375 C 223.082031 314.507812 221.730469 315.011719 220.355469 315.484375 Z M 239.472656 305.042969 C 231.261719 307.5 222.792969 308.710938 215.03125 308.367188 C 215.773438 307.5 216.386719 306.632812 216.890625 305.710938 C 225.449219 304.738281 235.085938 302.605469 244.710938 299.121094 C 243.734375 300.601562 242.5625 302.082031 241.136719 303.507812 C 240.613281 304.03125 240.035156 304.539062 239.472656 305.042969 Z M 248.988281 288.609375 C 248.84375 286.207031 248.195312 283.894531 247.054688 281.601562 C 256.101562 275.730469 264.332031 269.011719 271.679688 261.515625 C 273.25 264.730469 274.0625 268.054688 274.132812 271.433594 C 265.957031 278.53125 257.328125 284.203125 248.988281 288.609375 Z M 275.488281 270.238281 C 275.253906 266.898438 274.332031 263.628906 272.707031 260.449219 C 279.421875 253.445312 285.363281 245.804688 290.433594 237.566406 C 290.796875 236.953125 291.140625 236.359375 291.5 235.742188 C 293.523438 239.84375 294.585938 244.070312 294.640625 248.386719 C 288.9375 256.804688 282.402344 264.046875 275.488281 270.238281 Z M 295.957031 246.34375 C 295.617188 242.226562 294.40625 238.21875 292.367188 234.300781 C 294.570312 230.453125 296.589844 226.550781 298.359375 222.578125 C 300.582031 227.039062 301.71875 231.589844 301.773438 236.265625 C 299.964844 239.789062 298.015625 243.148438 295.957031 246.34375 Z M 291.210938 189.941406 C 285.867188 185.40625 279.476562 181.289062 272.273438 177.640625 C 274.132812 167.925781 275.164062 158.316406 275.289062 149.085938 C 282.78125 152.898438 289.332031 157.234375 294.785156 161.984375 C 294.785156 170.5625 293.738281 179.394531 291.589844 188.425781 C 291.480469 188.929688 291.335938 189.433594 291.210938 189.941406 Z M 228.425781 75.398438 C 232.273438 78.847656 235.539062 83.09375 238.265625 88.09375 C 230.429688 85.929688 222.054688 84.25 213.316406 83.074219 C 212.035156 78.46875 210.429688 74.441406 208.441406 71.246094 C 215.429688 72.21875 222.125 73.609375 228.425781 75.398438 Z M 139.140625 75.453125 C 145.441406 73.664062 152.175781 72.257812 159.179688 71.261719 C 157.191406 74.460938 155.605469 78.488281 154.324219 83.074219 C 145.585938 84.265625 137.210938 85.945312 129.375 88.09375 C 132.066406 83.148438 135.3125 78.902344 139.140625 75.453125 Z M 76.03125 188.425781 C 73.902344 179.394531 72.855469 170.542969 72.835938 161.964844 C 78.234375 157.285156 84.785156 152.96875 92.332031 149.140625 C 92.476562 158.296875 93.488281 167.796875 95.328125 177.441406 C 88.109375 181.074219 81.71875 185.15625 76.355469 189.671875 C 76.25 189.253906 76.140625 188.839844 76.03125 188.425781 Z M 60.109375 221.78125 C 60.109375 216.816406 61.320312 211.976562 63.613281 207.351562 C 64.964844 211.902344 66.625 216.417969 68.539062 220.863281 C 66.300781 224.996094 64.984375 229.261719 64.570312 233.59375 C 62.945312 230.199219 61.464844 226.660156 60.144531 222.957031 C 60.128906 222.578125 60.109375 222.179688 60.109375 221.78125 Z M 66.789062 243.90625 C 66.410156 242.460938 66.15625 241.015625 66.011719 239.554688 C 67.746094 242.75 69.585938 245.820312 71.535156 248.730469 C 71.535156 248.746094 71.535156 248.765625 71.535156 248.785156 C 71.535156 250.859375 71.769531 252.917969 72.222656 254.960938 C 70.21875 251.367188 68.414062 247.683594 66.789062 243.90625 Z M 81.339844 268.957031 C 81.25 268.867188 81.160156 268.796875 81.050781 268.757812 C 79.136719 266.160156 77.347656 263.484375 75.652344 260.757812 C 74.171875 257.523438 73.289062 254.21875 73.035156 250.878906 C 78.738281 259.007812 85.21875 266.015625 92.042969 272.011719 C 92.0625 275.316406 92.785156 278.585938 94.171875 281.761719 C 89.445312 278.007812 85.074219 273.761719 81.339844 268.957031 Z M 103.578125 292.363281 C 101.71875 290.59375 100.09375 288.769531 98.742188 286.890625 C 105.691406 291.605469 113.199219 295.382812 120.800781 298.308594 C 121.847656 300.277344 123.253906 302.171875 125.042969 304.03125 C 119.230469 302.027344 113.652344 299.410156 108.617188 296.265625 C 106.917969 295 105.238281 293.71875 103.578125 292.363281 Z M 264.042969 292.363281 C 262.347656 293.738281 260.613281 295.074219 258.863281 296.355469 C 253.84375 299.5 248.265625 302.082031 242.488281 304.066406 C 244.257812 302.242188 245.683594 300.3125 246.765625 298.324219 C 254.367188 295.417969 261.875 291.640625 268.828125 286.929688 C 267.492188 288.789062 265.882812 290.613281 264.042969 292.363281 Z M 286.554688 268.757812 C 286.464844 268.796875 286.375 268.867188 286.300781 268.957031 C 282.546875 273.78125 278.160156 278.023438 273.429688 281.800781 C 274.820312 278.601562 275.542969 275.332031 275.558594 272.027344 C 282.382812 266.03125 288.863281 259.023438 294.570312 250.933594 C 294.316406 254.273438 293.414062 257.5625 291.953125 260.792969 C 290.253906 263.503906 288.46875 266.160156 286.554688 268.757812 Z M 295.382812 254.960938 C 295.832031 252.9375 296.066406 250.859375 296.066406 248.785156 C 298.015625 245.859375 299.859375 242.824219 301.589844 239.609375 C 301.445312 241.054688 301.195312 242.480469 300.832031 243.925781 C 299.191406 247.683594 297.386719 251.382812 295.382812 254.960938 Z M 300.183594 141.140625 C 297.816406 138.070312 294.964844 135.125 291.734375 132.308594 C 290.617188 128.824219 289.296875 125.390625 287.78125 122.050781 C 290.109375 124.289062 292.1875 126.601562 293.957031 129.023438 C 296.265625 132.941406 298.324219 137.003906 300.183594 141.140625 Z M 261.117188 96.421875 C 254.726562 93.40625 247.6875 90.785156 240.140625 88.621094 C 237.6875 83.851562 234.761719 79.734375 231.351562 76.230469 C 236.371094 77.78125 241.117188 79.605469 245.523438 81.648438 C 247.238281 82.605469 248.933594 83.582031 250.613281 84.628906 C 254.582031 87.878906 258.105469 91.835938 261.117188 96.421875 Z M 203.097656 67.179688 C 203.910156 67.832031 204.671875 68.570312 205.410156 69.4375 C 198.640625 68.625 191.65625 68.191406 184.507812 68.15625 L 184.507812 65.753906 C 190.789062 65.773438 196.996094 66.261719 203.097656 67.179688 Z M 183.097656 65.734375 L 183.097656 68.15625 C 175.984375 68.191406 168.980469 68.644531 162.210938 69.457031 C 162.933594 68.589844 163.710938 67.832031 164.523438 67.179688 C 170.585938 66.261719 176.796875 65.773438 183.097656 65.734375 Z M 73.757812 128.949219 C 75.507812 126.582031 77.53125 124.289062 79.824219 122.105469 C 78.289062 125.480469 76.96875 128.949219 75.851562 132.488281 C 72.566406 135.324219 69.730469 138.324219 67.367188 141.394531 C 69.28125 137.113281 71.410156 132.960938 73.757812 128.949219 Z M 56.371094 190.84375 C 56.609375 187.285156 57.4375 183.800781 58.847656 180.40625 C 59.316406 188.765625 60.742188 197.113281 63.035156 205.328125 C 60.6875 209.644531 59.296875 214.089844 58.863281 218.65625 C 57.203125 210.386719 56.335938 201.878906 56.335938 193.265625 C 56.335938 192.453125 56.355469 191.640625 56.371094 190.84375 Z M 54.171875 192.957031 C 54.171875 193.046875 54.1875 193.121094 54.226562 193.210938 C 54.226562 193.226562 54.207031 193.246094 54.207031 193.265625 C 54.207031 227.886719 67.691406 260.449219 92.171875 284.941406 C 116.648438 309.433594 149.179688 322.90625 183.800781 322.90625 C 255.214844 322.90625 313.324219 264.804688 313.398438 193.371094 C 313.453125 193.246094 313.488281 193.101562 313.488281 192.957031 C 313.488281 191.820312 313.414062 190.699219 313.308594 189.578125 C 312.386719 156.328125 299.046875 125.191406 275.433594 101.585938 C 250.957031 77.097656 218.425781 63.605469 183.800781 63.605469 C 149.195312 63.605469 116.648438 77.097656 92.171875 101.585938 C 68.414062 125.355469 55.054688 156.710938 54.296875 190.210938 C 54.207031 191.132812 54.171875 192.035156 54.171875 192.957031 " fill-opacity="1" fill-rule="nonzero"/><g clip-path="url(#f36704a204)"><path fill="#ffffff" d="M 320.996094 218.511719 C 319.03125 218.675781 317.765625 219.996094 318.164062 221.441406 C 318.558594 222.902344 320.472656 223.949219 322.441406 223.789062 C 336.195312 222.632812 347.246094 220.554688 354.84375 217.59375 C 362.914062 214.449219 367.335938 210.257812 367.335938 205.039062 C 367.335938 194.203125 346.683594 181.632812 313.324219 170.09375 C 281.121094 158.949219 236.695312 148.402344 187.683594 141.121094 C 162.914062 137.457031 139.375 134.964844 117.984375 133.589844 C 87.007812 131.605469 60.472656 132 41.316406 134.601562 C 20.992188 137.367188 8.589844 142.800781 7.308594 150.785156 C 7.234375 151.253906 7.199219 151.722656 7.199219 152.175781 C 7.199219 156.671875 10.558594 161.367188 16.765625 166.117188 C 22.742188 170.652344 31.441406 175.328125 42.382812 179.953125 C 44.1875 180.710938 46.371094 180.332031 47.257812 179.070312 C 48.140625 177.824219 47.402344 176.195312 45.597656 175.421875 C 35.324219 171.085938 27.21875 166.75 21.820312 162.632812 C 17.054688 159.003906 14.472656 155.625 14.472656 152.644531 C 14.472656 152.355469 14.511719 152.085938 14.546875 151.851562 C 15.449219 146.234375 25.902344 142.171875 43.214844 139.820312 C 61.699219 137.292969 87.585938 136.949219 117.984375 138.882812 C 139.140625 140.238281 162.429688 142.710938 186.851562 146.34375 C 235.269531 153.511719 279.0625 163.898438 310.707031 174.84375 C 341.179688 185.390625 360.042969 196.136719 360.042969 204.570312 C 360.042969 207.804688 356.847656 210.585938 351 212.859375 C 344.121094 215.535156 333.886719 217.429688 320.996094 218.511719 " fill-opacity="1" fill-rule="nonzero"/></g><path fill="#ffffff" d="M 317.621094 60.644531 L 317.800781 60.644531 C 319.03125 76.808594 331.917969 89.722656 348.074219 90.929688 L 348.074219 91.128906 C 331.917969 92.339844 319.03125 105.253906 317.800781 121.417969 L 317.621094 121.417969 C 316.394531 105.253906 303.503906 92.339844 287.347656 91.128906 L 287.347656 90.929688 C 303.503906 89.722656 316.394531 76.808594 317.621094 60.644531 " fill-opacity="1" fill-rule="evenodd"/><path fill="#ffffff" d="M 348.5625 116.414062 L 348.652344 116.414062 C 349.15625 123.296875 354.644531 128.785156 361.503906 129.292969 L 361.503906 129.382812 C 354.644531 129.886719 349.15625 135.378906 348.652344 142.242188 L 348.5625 142.242188 C 348.058594 135.378906 342.570312 129.886719 335.691406 129.382812 L 335.691406 129.292969 C 342.570312 128.785156 348.058594 123.296875 348.5625 116.414062 " fill-opacity="1" fill-rule="evenodd"/><path stroke-linecap="butt" transform="matrix(0.971768, -0.059363, 0.059363, 0.971768, 101.57137, 107.374423)" fill="none" stroke-linejoin="miter" d="M 2.801291 55.000905 L 23.567346 54.999218 C 30.183695 55.001422 34.991772 50.190072 34.993975 43.573723 L 34.992805 11.612737 C 34.992942 10.820857 34.323083 10.205115 33.531204 10.204978 L 19.60274 10.206305 C 18.810861 10.206168 18.194539 10.819715 18.194402 11.611595 L 18.192672 38.487438 C 18.193268 39.267303 17.576946 39.880851 16.801086 39.881692 L 2.800292 39.88262 C 2.008412 39.882483 1.396095 40.496275 1.392687 41.275896 L 1.394443 53.552274 C 1.395039 54.332139 2.009411 55.000768 2.801291 55.000905 Z M 2.801291 55.000905 " stroke="#231f20" stroke-width="11.269819" stroke-opacity="1" stroke-miterlimit="4"/><path stroke-linecap="butt" transform="matrix(0.973289, -0.0237892, 0.0237892, 0.973289, 138.131875, 105.138202)" fill="none" stroke-linejoin="miter" d="M 2.858721 55.000496 L 16.80147 55.000143 C 17.580105 54.999107 18.193145 54.383979 18.192109 53.605343 L 18.195255 45.759117 C 18.194219 44.980482 18.807259 44.365354 19.601938 44.36471 C 20.380574 44.363674 20.994232 45.03688 20.995267 45.815515 L 20.997505 53.605684 C 20.99453 54.384222 21.665813 54.998634 22.44435 55.001609 L 36.387099 55.001256 C 37.181778 55.000612 37.794818 54.385484 37.797793 53.606946 L 37.796711 21.631731 C 37.797837 15.017586 32.982952 10.204159 26.368709 10.207044 L 12.82335 10.20507 C 6.221238 10.204239 1.395777 15.01883 1.394652 21.632975 L 1.395832 53.604179 C 1.392758 54.386728 2.076075 55.001434 2.858721 55.000496 Z M 19.601265 30.927649 C 18.810597 30.928391 18.195566 30.31134 18.194825 29.520671 L 18.195741 25.049706 C 18.195 24.259037 18.808039 23.643909 19.602719 23.643265 C 20.381354 23.642229 20.996385 24.25928 20.997126 25.049949 L 20.99621 29.520914 C 20.996951 30.311583 20.379901 30.926613 19.601265 30.927649 Z M 19.601265 30.927649 " stroke="#231f20" stroke-width="11.269819" stroke-opacity="1" stroke-miterlimit="4"/><path stroke-linecap="butt" transform="matrix(0.97349, 0.0131878, -0.0131878, 0.97349, 177.520862, 104.197853)" fill="none" stroke-linejoin="miter" d="M 12.713355 54.998739 L 26.657218 54.998435 C 27.435688 54.999927 28.049323 54.385708 28.050815 53.607238 L 28.050635 38.487675 C 28.047898 37.693212 28.665545 37.078939 29.444015 37.080431 L 36.510253 37.081008 C 37.236513 37.079194 37.907076 36.520381 37.905263 35.794121 L 37.905654 11.830727 C 37.904755 10.875734 37.345941 10.205171 36.443103 10.205364 L 22.515288 10.20545 C 21.720771 10.204176 21.107135 10.818395 21.1051 11.556745 L 21.104281 22.751976 C 21.104311 23.642778 20.43776 24.201538 19.655333 24.204112 C 18.864828 24.202783 18.195149 23.642063 18.195174 22.755272 L 18.195992 11.560041 C 18.194016 10.821745 17.579742 10.204097 16.801327 10.206617 L 2.857464 10.206921 C 1.954627 10.207114 1.393906 10.876793 1.394805 11.831785 L 1.394414 35.795179 C 1.396173 36.517428 2.077888 37.077985 2.804203 37.080183 L 9.854393 37.080978 C 10.632808 37.078458 11.251093 37.696051 11.249764 38.486556 L 11.249945 53.60612 C 11.248453 54.384589 11.918893 55.001476 12.713355 54.998739 Z M 12.713355 54.998739 " stroke="#231f20" stroke-width="11.269819" stroke-opacity="1" stroke-miterlimit="4"/><path stroke-linecap="butt" transform="matrix(0.972075, 0.0540967, -0.0540967, 0.972075, 217.163397, 104.679046)" fill="none" stroke-linejoin="miter" d="M 2.800175 54.998247 L 34.775135 54.998998 C 41.377598 55.001265 46.189109 50.188618 46.190707 43.574137 L 46.187888 37.313527 C 46.189263 30.69504 41.376616 25.883529 34.774377 25.885268 L 19.600687 25.885817 C 18.809042 25.885669 18.192047 25.269014 18.192863 24.489387 C 18.193011 23.697741 18.809666 23.080747 19.601311 23.080894 L 44.79309 23.081398 C 45.572718 23.082214 46.189373 22.46522 46.190189 21.685592 L 46.188121 11.611418 C 46.188268 10.819772 45.575503 10.206901 44.795875 10.206084 L 12.820915 10.205334 C 6.218675 10.207073 1.394923 15.016382 1.393548 21.634869 L 1.39303 27.90772 C 1.394769 34.50996 6.219434 39.320803 12.821897 39.32307 L 27.995586 39.32252 C 28.774991 39.319331 29.387979 39.936209 29.387832 40.727854 C 29.391022 41.507259 28.774367 42.124253 27.994739 42.123437 L 2.80296 42.122933 C 2.011314 42.122786 1.394659 42.73978 1.393843 43.519408 L 1.392574 53.605823 C 1.395764 54.385228 2.00853 54.9981 2.800175 54.998247 Z M 2.800175 54.998247 " stroke="#231f20" stroke-width="11.269819" stroke-opacity="1" stroke-miterlimit="4"/><g fill="#ffffff" fill-opacity="1"><g transform="translate(104.836335, 160.821663)"><g><path d="M 2.71875 -0.171875 L 22.90625 -1.40625 C 29.328125 -1.796875 33.734375 -6.75 33.34375 -13.1875 L 31.4375 -44.25 C 31.390625 -45.015625 30.703125 -45.5625 29.9375 -45.515625 L 16.390625 -44.6875 C 15.625 -44.640625 15.0625 -44.015625 15.109375 -43.25 L 16.703125 -17.125 C 16.75 -16.359375 16.203125 -15.734375 15.4375 -15.6875 L 1.828125 -14.859375 C 1.078125 -14.8125 0.5 -14.171875 0.546875 -13.40625 L 1.265625 -1.5 C 1.3125 -0.734375 1.96875 -0.125 2.71875 -0.171875 Z M 2.71875 -0.171875 "/></g></g></g><g fill="#ffffff" fill-opacity="1"><g transform="translate(139.440283, 158.669086)"><g><path d="M 2.78125 -0.0625 L 16.359375 -0.40625 C 17.125 -0.421875 17.703125 -1.03125 17.6875 -1.796875 L 17.5 -9.4375 C 17.484375 -10.203125 18.0625 -10.8125 18.828125 -10.828125 C 19.59375 -10.84375 20.203125 -10.203125 20.21875 -9.4375 L 20.40625 -1.859375 C 20.421875 -1.09375 21.09375 -0.515625 21.859375 -0.53125 L 35.421875 -0.859375 C 36.1875 -0.890625 36.765625 -1.5 36.75 -2.265625 L 35.984375 -33.375 C 35.828125 -39.8125 31.03125 -44.375 24.59375 -44.21875 L 11.421875 -43.90625 C 4.984375 -43.734375 0.40625 -38.9375 0.5625 -32.5 L 1.328125 -1.390625 C 1.34375 -0.625 2.015625 -0.046875 2.78125 -0.0625 Z M 18.5 -23.90625 C 17.734375 -23.890625 17.125 -24.484375 17.109375 -25.234375 L 17 -29.59375 C 16.984375 -30.34375 17.5625 -30.96875 18.328125 -30.984375 C 19.09375 -31 19.703125 -30.40625 19.71875 -29.65625 L 19.828125 -25.296875 C 19.84375 -24.546875 19.265625 -23.921875 18.5 -23.90625 Z M 18.5 -23.90625 "/></g></g></g><g fill="#ffffff" fill-opacity="1"><g transform="translate(176.795531, 157.739816)"><g><path d="M 12.375 0.171875 L 25.953125 0.34375 C 26.71875 0.359375 27.328125 -0.21875 27.328125 -0.984375 L 27.53125 -15.703125 C 27.546875 -16.46875 28.140625 -17.0625 28.90625 -17.046875 L 35.78125 -16.953125 C 36.484375 -16.953125 37.15625 -17.484375 37.15625 -18.203125 L 37.46875 -41.53125 C 37.484375 -42.453125 36.953125 -43.125 36.078125 -43.125 L 22.515625 -43.3125 C 21.75 -43.328125 21.125 -42.734375 21.125 -42.015625 L 20.96875 -31.125 C 20.953125 -30.25 20.296875 -29.71875 19.546875 -29.71875 C 18.78125 -29.734375 18.125 -30.296875 18.140625 -31.171875 L 18.296875 -42.0625 C 18.296875 -42.78125 17.71875 -43.375 16.953125 -43.390625 L 3.375 -43.578125 C 2.5 -43.578125 1.9375 -42.9375 1.921875 -42.015625 L 1.609375 -18.6875 C 1.609375 -17.96875 2.25 -17.40625 2.953125 -17.40625 L 9.828125 -17.3125 C 10.59375 -17.296875 11.1875 -16.703125 11.171875 -15.9375 L 10.96875 -1.21875 C 10.96875 -0.453125 11.609375 0.15625 12.375 0.171875 Z M 12.375 0.171875 "/></g></g></g><g fill="#ffffff" fill-opacity="1"><g transform="translate(214.18808, 158.143192)"><g><path d="M 2.71875 0.15625 L 33.8125 1.875 C 40.21875 2.234375 45.171875 -2.1875 45.53125 -8.609375 L 45.859375 -14.703125 C 46.21875 -21.125 41.796875 -26.0625 35.390625 -26.421875 L 20.625 -27.234375 C 19.859375 -27.28125 19.296875 -27.921875 19.34375 -28.6875 C 19.375 -29.4375 20.015625 -30.015625 20.78125 -29.96875 L 45.28125 -28.609375 C 46.046875 -28.5625 46.671875 -29.125 46.703125 -29.890625 L 47.25 -39.6875 C 47.296875 -40.453125 46.734375 -41.078125 45.96875 -41.125 L 14.890625 -42.859375 C 8.453125 -43.203125 3.515625 -38.78125 3.171875 -32.359375 L 2.828125 -26.265625 C 2.46875 -19.84375 6.875 -14.890625 13.3125 -14.546875 L 28.046875 -13.71875 C 28.8125 -13.671875 29.390625 -13.0625 29.34375 -12.296875 C 29.3125 -11.53125 28.671875 -10.953125 27.90625 -11 L 3.421875 -12.359375 C 2.671875 -12.40625 2.015625 -11.84375 1.984375 -11.078125 L 1.4375 -1.28125 C 1.390625 -0.515625 1.96875 0.109375 2.71875 0.15625 Z M 2.71875 0.15625 "/></g></g></g><path stroke-linecap="butt" transform="matrix(1.75942, -0.175721, 0.175721, 1.75942, 52.227611, 175.97473)" fill="none" stroke-linejoin="miter" d="M 8.749686 12.999381 L 1.24974 13.000752 L 1.250546 1.788863 L 8.750272 1.78969 C 11.818571 1.789749 14.022577 2.218571 15.366466 3.078794 C 16.449624 3.770884 17.068105 4.714071 17.217733 5.905717 C 17.286162 6.420975 17.320737 6.919531 17.319477 7.398967 C 17.321075 7.872027 17.287064 8.368173 17.22206 8.885646 C 17.156837 9.405318 16.984558 9.907636 16.702804 10.394581 C 16.421051 10.881525 15.975303 11.321008 15.363582 11.710612 C 14.751641 12.102414 13.912393 12.413789 12.847596 12.649352 C 11.783019 12.882717 10.417049 12.999393 8.749686 12.999381 Z M 8.305078 10.22636 C 10.6961 10.227602 12.046402 9.623138 12.36038 8.413409 C 12.442992 8.07531 12.483397 7.737436 12.484015 7.397809 C 12.485071 7.053784 12.441284 6.714162 12.354852 6.379162 C 12.268639 6.041963 12.088126 5.737529 11.808916 5.465422 C 11.529926 5.191117 11.112233 4.971785 10.555619 4.809624 C 9.997027 4.645045 9.248077 4.563584 8.304594 4.562602 L 5.95336 4.563114 L 5.953843 10.226872 Z M 8.305078 10.22636 " stroke="#231f20" stroke-width="1.9" stroke-opacity="1" stroke-miterlimit="4"/><path stroke-linecap="butt" transform="matrix(1.763417, -0.129602, 0.129602, 1.763417, 84.247624, 172.811811)" fill="none" stroke-linejoin="miter" d="M 14.749198 12.999725 L 1.249997 12.999993 L 1.249905 1.789064 L 14.133199 1.790049 L 14.133165 4.563426 L 5.952649 4.562507 L 5.95407 6.321448 L 12.867683 6.320077 L 12.866396 8.477548 L 5.952945 8.476716 L 5.95281 10.226682 L 14.749233 10.226348 Z M 14.749198 12.999725 " stroke="#231f20" stroke-width="1.9" stroke-opacity="1" stroke-miterlimit="4"/><path stroke-linecap="butt" transform="matrix(1.766154, -0.0844787, 0.0844787, 1.766154, 111.793408, 170.772968)" fill="none" stroke-linejoin="miter" d="M 10.766095 13.000426 L 6.397984 12.999393 L 0.117258 1.797373 L 4.883521 1.797545 L 8.585608 9.804136 L 12.281746 1.797541 L 17.045802 1.797607 Z M 10.766095 13.000426 " stroke="#231f20" stroke-width="1.9" stroke-opacity="1" stroke-miterlimit="4"/><path stroke-linecap="butt" transform="matrix(1.767254, -0.0570073, 0.0570073, 1.767254, 142.375673, 169.411923)" fill="none" stroke-linejoin="miter" d="M 0.233355 10.843874 L 2.390694 10.842733 L 2.389626 13 L 0.234567 12.999004 Z M 0.233355 10.843874 " stroke="#231f20" stroke-width="1.9" stroke-opacity="1" stroke-miterlimit="4"/><path stroke-linecap="butt" transform="matrix(1.767945, -0.0284368, 0.0284368, 1.767945, 147.286576, 169.146332)" fill="none" stroke-linejoin="miter" d="M 8.749582 12.998928 L 1.25057 12.999831 L 1.249716 1.788882 L 8.750937 1.788014 C 11.817693 1.788733 14.022458 2.219694 15.367475 3.078724 C 16.450052 3.77003 17.066772 4.714563 17.217744 5.905695 C 17.286777 6.421616 17.320753 6.919297 17.319669 7.398738 C 17.320902 7.871588 17.288609 8.368203 17.222828 8.886375 C 17.157047 9.404546 16.985451 9.907758 16.703658 10.393732 C 16.421829 10.881914 15.975078 11.321045 15.363404 11.711123 C 14.751731 12.101202 13.913711 12.414727 12.847173 12.649453 C 11.782879 12.882006 10.417739 12.999246 8.749582 12.998928 Z M 8.303686 10.225479 C 10.694336 10.22637 12.047412 9.622849 12.358494 8.414845 C 12.443487 8.075951 12.484301 7.736346 12.485319 7.398311 C 12.484235 7.053614 12.441075 6.714868 12.355874 6.379865 C 12.268501 6.042618 12.087784 5.739221 11.809377 5.465186 C 11.530971 5.19115 11.112479 4.972308 10.553901 4.80866 C 9.997533 4.645046 9.247639 4.562281 8.304183 4.562572 L 5.953293 4.56232 L 5.952761 10.227436 Z M 8.303686 10.225479 " stroke="#231f20" stroke-width="1.9" stroke-opacity="1" stroke-miterlimit="4"/><path stroke-linecap="butt" transform="matrix(1.768083, 0.0178549, -0.0178549, 1.768083, 179.458762, 168.664326)" fill="none" stroke-linejoin="miter" d="M 14.749336 13.00074 L 1.250424 13.000081 L 1.249895 1.790029 L 14.132382 1.788076 L 14.133893 4.562959 L 5.952791 4.561621 L 5.952876 6.320234 L 12.868036 6.3211 L 12.867718 8.477393 L 5.952558 8.476527 L 5.952553 10.226304 L 14.750035 10.225835 Z M 14.749336 13.00074 " stroke="#231f20" stroke-width="1.9" stroke-opacity="1" stroke-miterlimit="4"/><path stroke-linecap="butt" transform="matrix(1.767162, 0.0598061, -0.0598061, 1.767162, 207.046633, 168.953442)" fill="none" stroke-linejoin="miter" d="M 7.406827 13.241834 C 5.890464 13.242312 4.669224 13.080279 3.743033 12.753529 C 2.814709 12.429061 2.109842 11.979877 1.624165 11.41054 C 1.140622 10.838921 0.815568 10.182361 0.648855 9.436444 L 5.64013 9.43773 C 6.009574 9.969002 6.5999 10.234173 7.406694 10.233395 C 8.213562 10.234824 8.801411 9.969568 9.172448 9.437551 C 9.203848 9.385648 9.217735 9.338758 9.218523 9.296732 C 9.218157 9.155275 9.03337 9.051006 8.659597 8.979657 C 8.288106 8.910443 7.731448 8.856336 6.991905 8.819472 C 6.059898 8.778068 5.081789 8.680753 4.055221 8.523185 C 1.768683 8.169527 0.625736 7.251076 0.624096 5.765699 C 0.624253 5.639697 0.633017 5.506772 0.648181 5.367 C 0.815314 4.623048 1.140066 3.964391 1.624795 3.39537 C 2.109449 2.824141 2.81489 2.375857 3.741117 2.050519 C 4.669552 1.725106 5.890847 1.562198 7.40721 1.56172 C 8.92144 1.563525 10.14268 1.725558 11.071004 2.050025 C 11.997195 2.376776 12.704196 2.823678 13.187739 3.395297 C 13.671207 3.964708 13.996336 4.623476 14.162975 5.367185 L 9.171774 5.368107 C 8.802331 4.836835 8.214137 4.569381 7.407343 4.57016 C 6.598342 4.571013 6.010493 4.836269 5.641664 5.368211 C 5.614306 5.408925 5.602329 5.446909 5.601391 5.484518 C 5.60116 5.608312 5.778949 5.701766 6.136893 5.762598 C 6.492554 5.821296 7.020359 5.871958 7.715893 5.914733 C 8.409144 5.955375 9.151942 6.023076 9.937661 6.11806 C 10.723306 6.210837 11.460484 6.373778 12.144706 6.604825 C 12.829003 6.838081 13.364464 7.180265 13.748956 7.633661 C 14.052509 7.981483 14.202362 8.425136 14.202781 8.960055 C 14.203521 9.112552 14.191163 9.269913 14.163648 9.436629 C 13.99659 10.182789 13.671763 10.839238 13.187109 11.410467 C 12.70238 11.979488 11.99694 12.427772 11.070713 12.75311 C 10.142278 13.078523 8.920983 13.241431 7.406827 13.241834 Z M 7.406827 13.241834 " stroke="#231f20" stroke-width="1.9" stroke-opacity="1" stroke-miterlimit="4"/><path stroke-linecap="butt" transform="matrix(1.765861, 0.090387, -0.090387, 1.765861, 233.541728, 169.911054)" fill="none" stroke-linejoin="miter" d="M 1.249213 1.789284 L 5.952143 1.789679 L 5.953047 13.000521 L 1.250116 13.000126 Z M 1.249213 1.789284 " stroke="#231f20" stroke-width="1.9" stroke-opacity="1" stroke-miterlimit="4"/><path stroke-linecap="butt" transform="matrix(1.76382, 0.124005, -0.124005, 1.76382, 246.589647, 170.498588)" fill="none" stroke-linejoin="miter" d="M 8.476417 13.242026 C 5.705877 13.241918 3.665992 12.672214 2.358809 11.530553 C 1.202583 10.520017 0.625363 9.145434 0.624946 7.40696 C 0.624064 5.661875 1.20263 4.283548 2.358596 3.274337 C 3.666915 2.13261 5.706345 1.5618 8.476884 1.561907 C 10.053709 1.561781 11.366219 1.739693 12.414259 2.093439 C 13.460096 2.44734 14.282439 2.929901 14.87924 3.54348 C 15.475887 4.154856 15.881976 4.859357 16.101915 5.656672 L 11.07018 5.656083 C 10.545277 4.931145 9.680614 4.571151 8.475725 4.569489 C 7.341822 4.56948 6.50551 4.89625 5.968837 5.54744 C 5.540753 6.073619 5.327414 6.693218 5.32882 7.406238 C 5.328023 8.119413 5.542024 8.737759 5.96831 9.257023 C 6.50573 9.907997 7.341469 10.23459 8.477576 10.234444 C 9.392223 10.234365 10.082035 10.154862 10.542605 9.996247 C 11.003174 9.837631 11.340713 9.630084 11.555375 9.37581 L 9.719316 9.374229 L 9.718211 7.405479 L 16.100903 7.40632 L 16.100465 13.007211 L 14.149345 13.007075 L 13.749664 11.921204 C 12.504911 12.801562 10.746428 13.241888 8.476417 13.242026 Z M 8.476417 13.242026 " stroke="#231f20" stroke-width="1.9" stroke-opacity="1" stroke-miterlimit="4"/><path stroke-linecap="butt" transform="matrix(1.759583, 0.17408, -0.17408, 1.759583, 277.128267, 172.625936)" fill="none" stroke-linejoin="miter" d="M 17.88308 12.999822 L 12.288783 13.000502 L 5.952689 5.413397 L 5.952802 12.999079 L 1.250989 13.000262 L 1.249652 1.789465 L 6.84395 1.788785 L 13.180526 9.335882 L 13.179713 1.78801 L 17.881744 1.789025 Z M 17.88308 12.999822 " stroke="#231f20" stroke-width="1.9" stroke-opacity="1" stroke-miterlimit="4"/><g fill="#d9d9d9" fill-opacity="1"><g transform="translate(54.511987, 198.847189)"><g><path d="M 15.390625 -1.53125 L 2.1875 -0.21875 L 0.21875 -19.953125 L 13.421875 -21.265625 C 18.828125 -21.804688 22.78125 -21.4375 25.28125 -20.15625 C 27.3125 -19.125 28.566406 -17.578125 29.046875 -15.515625 C 29.253906 -14.609375 29.398438 -13.738281 29.484375 -12.90625 C 29.566406 -12.070312 29.59375 -11.191406 29.5625 -10.265625 C 29.539062 -9.347656 29.328125 -8.429688 28.921875 -7.515625 C 28.523438 -6.609375 27.820312 -5.757812 26.8125 -4.96875 C 25.800781 -4.175781 24.378906 -3.476562 22.546875 -2.875 C 20.710938 -2.269531 18.328125 -1.820312 15.390625 -1.53125 Z M 14.125 -6.328125 C 18.332031 -6.753906 20.601562 -8.054688 20.9375 -10.234375 C 21.03125 -10.847656 21.046875 -11.453125 20.984375 -12.046875 C 20.921875 -12.648438 20.785156 -13.238281 20.578125 -13.8125 C 20.367188 -14.394531 19.992188 -14.898438 19.453125 -15.328125 C 18.921875 -15.765625 18.148438 -16.078125 17.140625 -16.265625 C 16.128906 -16.453125 14.789062 -16.460938 13.125 -16.296875 L 9 -15.890625 L 10 -5.921875 Z M 14.125 -6.328125 "/></g></g></g><g fill="#d9d9d9" fill-opacity="1"><g transform="translate(85.932454, 195.736234)"><g><path d="M 26.015625 -1.90625 L 2.203125 -0.15625 L 0.75 -19.9375 L 23.484375 -21.609375 L 23.84375 -16.703125 L 9.40625 -15.640625 L 9.640625 -12.546875 L 21.828125 -13.453125 L 22.09375 -9.65625 L 9.90625 -8.75 L 10.140625 -5.65625 L 25.65625 -6.796875 Z M 26.015625 -1.90625 "/></g></g></g><g fill="#d9d9d9" fill-opacity="1"><g transform="translate(112.891631, 193.732971)"><g><path d="M 19.03125 -0.90625 L 11.296875 -0.546875 L -0.75 -19.8125 L 7.671875 -20.203125 L 14.90625 -6.375 L 20.734375 -20.828125 L 29.15625 -21.234375 Z M 19.03125 -0.90625 "/></g></g></g><g fill="#d9d9d9" fill-opacity="1"><g transform="translate(143.116767, 192.386225)"><g><path d="M 4.234375 -0.140625 L 0.421875 -0.015625 L 0.296875 -3.828125 L 4.109375 -3.953125 Z M 4.234375 -0.140625 "/></g></g></g><g fill="#d9d9d9" fill-opacity="1"><g transform="translate(147.656255, 192.129611)"><g><path d="M 15.46875 -0.25 L 2.203125 -0.03125 L 1.890625 -19.859375 L 15.15625 -20.078125 C 20.582031 -20.160156 24.492188 -19.460938 26.890625 -17.984375 C 28.828125 -16.785156 29.945312 -15.132812 30.25 -13.03125 C 30.382812 -12.113281 30.457031 -11.234375 30.46875 -10.390625 C 30.476562 -9.554688 30.429688 -8.679688 30.328125 -7.765625 C 30.234375 -6.847656 29.945312 -5.953125 29.46875 -5.078125 C 28.988281 -4.210938 28.210938 -3.425781 27.140625 -2.71875 C 26.066406 -2.007812 24.585938 -1.429688 22.703125 -0.984375 C 20.828125 -0.535156 18.414062 -0.289062 15.46875 -0.25 Z M 14.609375 -5.140625 C 18.835938 -5.210938 21.210938 -6.316406 21.734375 -8.453125 C 21.867188 -9.066406 21.929688 -9.671875 21.921875 -10.265625 C 21.910156 -10.867188 21.820312 -11.460938 21.65625 -12.046875 C 21.5 -12.640625 21.171875 -13.175781 20.671875 -13.65625 C 20.171875 -14.132812 19.425781 -14.507812 18.4375 -14.78125 C 17.445312 -15.0625 16.117188 -15.1875 14.453125 -15.15625 L 10.296875 -15.09375 L 10.453125 -5.078125 Z M 14.609375 -5.140625 "/></g></g></g><g fill="#d9d9d9" fill-opacity="1"><g transform="translate(179.226648, 191.649406)"><g><path d="M 26.09375 0.265625 L 2.203125 0.015625 L 2.40625 -19.8125 L 25.203125 -19.578125 L 25.15625 -14.671875 L 10.6875 -14.8125 L 10.65625 -11.703125 L 22.875 -11.578125 L 22.828125 -7.765625 L 10.609375 -7.890625 L 10.578125 -4.796875 L 26.140625 -4.640625 Z M 26.09375 0.265625 "/></g></g></g><g fill="#d9d9d9" fill-opacity="1"><g transform="translate(206.269153, 191.926542)"><g><path d="M 13.078125 0.859375 C 10.398438 0.773438 8.25 0.421875 6.625 -0.203125 C 5.007812 -0.835938 3.789062 -1.675781 2.96875 -2.71875 C 2.144531 -3.757812 1.609375 -4.941406 1.359375 -6.265625 L 10.1875 -5.953125 C 10.8125 -4.992188 11.835938 -4.492188 13.265625 -4.453125 C 14.679688 -4.398438 15.734375 -4.832031 16.421875 -5.75 C 16.472656 -5.84375 16.5 -5.925781 16.5 -6 C 16.507812 -6.25 16.1875 -6.445312 15.53125 -6.59375 C 14.882812 -6.738281 13.910156 -6.863281 12.609375 -6.96875 C 10.960938 -7.101562 9.238281 -7.335938 7.4375 -7.671875 C 3.414062 -8.441406 1.453125 -10.140625 1.546875 -12.765625 C 1.546875 -12.984375 1.5625 -13.210938 1.59375 -13.453125 C 1.9375 -14.753906 2.550781 -15.894531 3.4375 -16.875 C 4.332031 -17.851562 5.609375 -18.601562 7.265625 -19.125 C 8.929688 -19.644531 11.101562 -19.863281 13.78125 -19.78125 C 16.457031 -19.6875 18.601562 -19.320312 20.21875 -18.6875 C 21.832031 -18.050781 23.050781 -17.210938 23.875 -16.171875 C 24.695312 -15.140625 25.234375 -13.960938 25.484375 -12.640625 L 16.65625 -12.9375 C 16.03125 -13.894531 15.007812 -14.398438 13.59375 -14.453125 C 12.164062 -14.492188 11.109375 -14.054688 10.421875 -13.140625 C 10.378906 -13.085938 10.359375 -13.03125 10.359375 -12.96875 C 10.347656 -12.738281 10.65625 -12.554688 11.28125 -12.421875 C 11.90625 -12.296875 12.828125 -12.175781 14.046875 -12.0625 C 15.273438 -11.945312 16.582031 -11.78125 17.96875 -11.5625 C 19.351562 -11.351562 20.644531 -11.023438 21.84375 -10.578125 C 23.039062 -10.128906 23.96875 -9.488281 24.625 -8.65625 C 25.144531 -8.03125 25.382812 -7.242188 25.34375 -6.296875 C 25.34375 -6.035156 25.3125 -5.753906 25.25 -5.453125 C 24.90625 -4.148438 24.285156 -3.003906 23.390625 -2.015625 C 22.503906 -1.035156 21.234375 -0.289062 19.578125 0.21875 C 17.921875 0.738281 15.753906 0.953125 13.078125 0.859375 Z M 13.078125 0.859375 "/></g></g></g><g fill="#d9d9d9" fill-opacity="1"><g transform="translate(232.366698, 192.867253)"><g><path d="M 10.515625 0.53125 L 2.203125 0.109375 L 3.21875 -19.6875 L 11.53125 -19.265625 Z M 10.515625 0.53125 "/></g></g></g><g fill="#d9d9d9" fill-opacity="1"><g transform="translate(244.97758, 193.428242)"><g><path d="M 14.921875 1.46875 C 10.035156 1.125 6.507812 -0.128906 4.34375 -2.296875 C 2.4375 -4.222656 1.585938 -6.71875 1.796875 -9.78125 C 2.015625 -12.863281 3.203125 -15.222656 5.359375 -16.859375 C 7.816406 -18.722656 11.488281 -19.484375 16.375 -19.140625 C 19.15625 -18.941406 21.445312 -18.460938 23.25 -17.703125 C 25.050781 -16.941406 26.441406 -15.988281 27.421875 -14.84375 C 28.398438 -13.695312 29.023438 -12.398438 29.296875 -10.953125 L 20.4375 -11.578125 C 19.601562 -12.921875 18.125 -13.671875 16 -13.828125 C 14 -13.960938 12.484375 -13.492188 11.453125 -12.421875 C 10.640625 -11.535156 10.1875 -10.460938 10.09375 -9.203125 C 10.007812 -7.953125 10.3125 -6.84375 11 -5.875 C 11.863281 -4.644531 13.296875 -3.960938 15.296875 -3.828125 C 16.910156 -3.710938 18.132812 -3.765625 18.96875 -3.984375 C 19.8125 -4.210938 20.4375 -4.535156 20.84375 -4.953125 L 17.59375 -5.1875 L 17.828125 -8.65625 L 29.078125 -7.859375 L 28.390625 2.015625 L 24.953125 1.765625 L 24.390625 -0.203125 C 22.085938 1.191406 18.929688 1.75 14.921875 1.46875 Z M 14.921875 1.46875 "/></g></g></g><g fill="#d9d9d9" fill-opacity="1"><g transform="translate(274.865233, 195.500517)"><g><path d="M 31.46875 3.109375 L 21.625 2.140625 L 11.8125 -12.328125 L 10.484375 1.03125 L 2.1875 0.21875 L 4.140625 -19.515625 L 14 -18.546875 L 23.84375 -4.15625 L 25.15625 -17.4375 L 33.421875 -16.625 Z M 31.46875 3.109375 "/></g></g></g></svg>